<svg width="109" height="42" viewBox="0 0 109 42" fill="none" xmlns="http://www.w3.org/2000/svg">
<g clip-path="url(#clip0_563_24642)">
<path d="M100.25 23.1324C99.2464 23.1329 98.2481 22.9917 97.2856 22.7131L92.5479 25.3685L91.7837 25.7999L91.9897 25.9194C94.7362 27.4615 97.4772 29.0028 100.213 30.5435C100.266 30.5805 100.329 30.6004 100.394 30.6004C100.459 30.6004 100.522 30.5805 100.575 30.5435C103.322 28.9961 106.068 27.4513 108.815 25.9093C108.864 25.8809 108.914 25.8465 108.994 25.7979L103.405 22.6523C102.385 22.9712 101.321 23.1332 100.25 23.1324Z" fill="#240046"/>
<path d="M12.0047 25.4685L9.77796 24.6583C9.73952 24.6442 9.69816 24.6395 9.65745 24.6446C9.61674 24.6497 9.5779 24.6644 9.54426 24.6875C9.51062 24.7106 9.4832 24.7414 9.46434 24.7773C9.44549 24.8131 9.43577 24.8529 9.43603 24.8933V33.8154C9.27742 34.7167 8.49261 35.2332 7.10632 35.3305H5.0897C3.67045 35.2251 2.87329 34.7228 2.6982 33.8174V33.7911L2.71468 28.0996C2.71543 28.059 2.70603 28.019 2.68731 27.9829C2.6686 27.9468 2.64114 27.9157 2.60736 27.8925C2.57358 27.8693 2.53451 27.8546 2.49359 27.8497C2.45268 27.8449 2.41117 27.85 2.37274 27.8646L0.168678 28.6748C0.120205 28.6929 0.0784789 28.725 0.0490441 28.767C0.0196092 28.809 0.00385961 28.8588 0.00388845 28.9097V33.1531C-0.0035431 33.8177 0.0322342 34.482 0.111002 35.1421C0.176917 35.614 0.479718 36.1244 1.0091 36.6571C1.83305 37.4977 3.16785 37.9534 4.99701 38.0183H7.16193C8.99727 37.9555 10.3382 37.4977 11.1395 36.6612C11.6627 36.1244 11.9635 35.612 12.0418 35.136C12.1359 34.4792 12.1786 33.8163 12.1695 33.1531V25.7034C12.1695 25.6525 12.1538 25.6027 12.1243 25.5607C12.0949 25.5187 12.0532 25.4866 12.0047 25.4685Z" fill="#FF8501"/>
<path d="M4.46797 21.2674H7.23437C7.30176 21.2668 7.3662 21.2401 7.41366 21.1931C7.46111 21.146 7.48774 21.0825 7.48774 21.0162V9.45081H10.8494C10.8829 9.45108 10.9161 9.44483 10.947 9.43243C10.978 9.42003 11.0062 9.40172 11.0299 9.37856C11.0537 9.3554 11.0725 9.32785 11.0854 9.29749C11.0982 9.26713 11.1049 9.23457 11.1049 9.20168V6.60098C11.1051 6.56793 11.0987 6.53515 11.086 6.50455C11.0732 6.47396 11.0544 6.44616 11.0307 6.42279C11.0069 6.39941 10.9786 6.38092 10.9475 6.36839C10.9164 6.35587 10.8831 6.34956 10.8494 6.34983H7.48774V6.05208C7.48774 4.95833 7.78093 4.19271 8.3673 3.75521C8.95368 3.31771 9.85316 3.09963 11.0657 3.10098H11.1749V0.251157L10.9174 0C6.44751 0.0445602 4.21323 2.06192 4.21461 6.05208V6.34983H2.15474C2.12129 6.34983 2.08818 6.35634 2.0573 6.36898C2.02643 6.38163 1.99841 6.40016 1.97485 6.42351C1.9513 6.44686 1.93268 6.47456 1.92007 6.50502C1.90746 6.53548 1.9011 6.5681 1.90138 6.60098V9.20168C1.90138 9.26775 1.92807 9.33112 1.97558 9.37784C2.0231 9.42456 2.08754 9.45081 2.15474 9.45081H4.21461V21.0081C4.21351 21.0416 4.21923 21.075 4.23145 21.1062C4.24366 21.1375 4.26212 21.1661 4.28573 21.1902C4.30934 21.2144 4.33762 21.2337 4.36892 21.2469C4.40022 21.2602 4.4339 21.2671 4.46797 21.2674Z" fill="#240046"/>
<path d="M31.0234 6.51876V8.34167C29.8204 6.7213 28.0963 5.90774 25.851 5.90099C24.8752 5.88829 23.9075 6.07777 23.011 6.4571C22.1146 6.83644 21.3093 7.39712 20.6478 8.10267C19.21 9.5745 18.4911 11.3853 18.4911 13.535C18.4688 14.5337 18.6478 15.5269 19.018 16.4572C19.3882 17.3875 19.9421 18.2365 20.6478 18.9551C21.306 19.6665 22.11 20.2329 23.0068 20.6169C23.9036 21.0009 24.8729 21.1939 25.851 21.1831C28.0963 21.1831 29.8204 20.3594 31.0234 18.712V20.5552C31.0234 20.6213 31.0501 20.6847 31.0976 20.7314C31.1451 20.7781 31.2095 20.8043 31.2767 20.8043H34.2141V6.51876C34.2114 6.45445 34.1836 6.39366 34.1363 6.3491C34.0891 6.30455 34.0262 6.2797 33.9607 6.27975H31.2829C31.2164 6.2781 31.1519 6.30224 31.1033 6.34696C31.0548 6.39168 31.026 6.45339 31.0234 6.51876ZM29.6927 16.8628C28.7949 17.7113 27.5979 18.1852 26.3526 18.1852C25.1073 18.1852 23.9104 17.7113 23.0125 16.8628C22.5736 16.4254 22.2295 15.9049 22.0012 15.3329C21.7728 14.7608 21.6649 14.1492 21.6839 13.535C21.6649 12.9207 21.7728 12.3091 22.0012 11.7371C22.2295 11.1651 22.5736 10.6446 23.0125 10.2071C23.9104 9.35862 25.1073 8.88472 26.3526 8.88472C27.5979 8.88472 28.7949 9.35862 29.6927 10.2071C30.1319 10.6445 30.4763 11.1649 30.705 11.7369C30.9337 12.3089 31.042 12.9206 31.0234 13.535C31.042 14.1493 30.9337 14.761 30.705 15.333C30.4763 15.905 30.1319 16.4255 29.6927 16.8628Z" fill="#240046"/>
<path d="M71.8399 8.32981C70.6369 6.70944 68.9128 5.89588 66.6675 5.88913C65.6912 5.878 64.7235 6.06921 63.8274 6.45029C62.9312 6.83138 62.1267 7.3938 61.4664 8.10094C60.0272 9.57277 59.3076 11.3842 59.3076 13.5353C59.3076 15.6863 60.0272 17.4923 61.4664 18.9534C62.1243 19.6647 62.9279 20.2309 63.8243 20.6149C64.7208 20.9989 65.6898 21.192 66.6675 21.1814C68.9128 21.1814 70.6369 20.3577 71.8399 18.7103V20.5535C71.8399 20.5862 71.8464 20.6186 71.8591 20.6488C71.8719 20.679 71.8905 20.7065 71.9141 20.7296C71.9376 20.7528 71.9655 20.7711 71.9963 20.7837C72.027 20.7962 72.0599 20.8026 72.0932 20.8026H74.771C74.8384 20.8026 74.9031 20.7764 74.9509 20.7298C74.9988 20.6831 75.0259 20.6197 75.0265 20.5535V6.51702C75.0233 6.45289 74.9953 6.39238 74.9482 6.34793C74.9011 6.30348 74.8384 6.27846 74.7731 6.27802H72.0953C72.062 6.27802 72.0291 6.28446 71.9983 6.29698C71.9676 6.3095 71.9396 6.32786 71.9161 6.35099C71.8926 6.37412 71.8739 6.40159 71.8612 6.43181C71.8485 6.46204 71.8419 6.49444 71.8419 6.52715L71.8399 8.32981ZM70.5092 16.8611C69.6119 17.7099 68.4152 18.1841 67.1701 18.1841C65.925 18.1841 64.7283 17.7099 63.8311 16.8611C63.3915 16.424 63.0469 15.9036 62.8181 15.3316C62.5893 14.7595 62.4813 14.1476 62.5004 13.5332C62.4813 12.9188 62.5893 12.307 62.8181 11.7349C63.0469 11.1628 63.3915 10.6425 63.8311 10.2054C64.7283 9.35655 65.925 8.88239 67.1701 8.88239C68.4152 8.88239 69.6119 9.35655 70.5092 10.2054C70.9488 10.6425 71.2934 11.1628 71.5222 11.7349C71.7509 12.307 71.859 12.9188 71.8399 13.5332C71.859 14.1476 71.7509 14.7595 71.5222 15.3316C71.2934 15.9036 70.9488 16.424 70.5092 16.8611Z" fill="#240046"/>
<path d="M89.1593 7.49457C88.1157 6.42918 86.7465 5.89648 85.0519 5.89648C82.9632 5.89648 81.4362 6.64253 80.4708 8.13462V6.51425C80.4666 6.45049 80.4378 6.39069 80.3904 6.34704C80.3429 6.30339 80.2804 6.27916 80.2154 6.2793H77.5375C77.5043 6.2793 77.4713 6.28574 77.4406 6.29826C77.4098 6.31078 77.3819 6.32913 77.3584 6.35227C77.3349 6.3754 77.3162 6.40286 77.3035 6.43309C77.2907 6.46332 77.2842 6.49571 77.2842 6.52843V20.5608C77.2842 20.5936 77.2907 20.6259 77.3035 20.6562C77.3162 20.6864 77.3349 20.7139 77.3584 20.737C77.3819 20.7601 77.4098 20.7785 77.4406 20.791C77.4713 20.8035 77.5043 20.81 77.5375 20.81H80.2154C80.2828 20.81 80.3474 20.7838 80.3953 20.7371C80.4431 20.6905 80.4703 20.6271 80.4708 20.5608V13.0119C80.4708 11.5968 80.8141 10.5456 81.5007 9.85829C82.1874 9.17098 83.0937 8.82665 84.2198 8.8253C85.2442 8.8253 86.0517 9.1163 86.6422 9.69828C87.2327 10.2803 87.5334 11.1134 87.5444 12.1977V20.5507C87.5444 20.5834 87.5509 20.6158 87.5637 20.646C87.5764 20.6763 87.5951 20.7037 87.6186 20.7269C87.6421 20.75 87.6701 20.7684 87.7008 20.7809C87.7315 20.7934 87.7645 20.7998 87.7977 20.7998H90.4756C90.543 20.7998 90.6076 20.7737 90.6555 20.727C90.7033 20.6803 90.7305 20.617 90.731 20.5507V11.8777C90.731 11.6103 90.7166 11.3511 90.6939 11.0999C90.5635 9.60781 90.0519 8.40603 89.1593 7.49457Z" fill="#240046"/>
<path d="M107.094 11.3843C106.768 10.2 106.154 9.11152 105.304 8.21243C103.915 6.72034 102.136 5.97767 99.9693 5.98442C97.6828 5.98442 95.8104 6.71561 94.352 8.178C92.8936 9.64038 92.1651 11.4565 92.1665 13.6265C92.1665 15.8356 92.9053 17.6619 94.3829 19.1054C95.7919 20.4827 97.6238 21.2024 99.8787 21.2645L100.237 21.062H100.56L100.888 21.2463C103.309 21.095 105.186 20.1222 106.518 18.3276C106.538 18.2991 106.552 18.2667 106.56 18.2325C106.567 18.1983 106.566 18.163 106.559 18.1289C106.551 18.0948 106.537 18.0626 106.516 18.0344C106.495 18.0062 106.468 17.9825 106.437 17.965L104.244 16.7052C104.189 16.6748 104.126 16.6651 104.064 16.6777C104.003 16.6904 103.949 16.7247 103.912 16.7741C103.067 17.8543 101.842 18.3944 100.235 18.3944C99.1309 18.4292 98.044 18.1186 97.1308 17.5073C96.273 16.8996 95.69 15.9869 95.5056 14.9633H107.179L107.234 14.6169C107.419 13.5417 107.372 12.4402 107.094 11.3843ZM95.4767 12.397C95.645 11.376 96.1791 10.4478 96.9825 9.78014C97.7707 9.14144 98.756 8.82209 99.9384 8.82209C100.928 8.80316 101.895 9.12082 102.674 9.7214C103.451 10.3209 103.948 11.2121 104.165 12.395L95.4767 12.397Z" fill="#240046"/>
<path d="M100.237 21.053L99.8789 21.2555C99.986 21.2555 100.095 21.2555 100.204 21.2555C100.437 21.2555 100.666 21.2555 100.888 21.2312L100.561 21.0469L100.237 21.053Z" fill="#240046"/>
<path d="M4.99944 23.1895L2.67797 24.508L2.44727 24.6377L2.507 24.6741L5.0015 26.0757C5.01736 26.0871 5.03647 26.0932 5.05609 26.0932C5.07571 26.0932 5.09482 26.0871 5.11068 26.0757C5.94286 25.6058 6.77642 25.1373 7.61136 24.6701L7.66491 24.6356L5.10656 23.1955L4.99944 23.1895Z" fill="#FF8501"/>
<path d="M14.9939 3.28248L17.4946 1.87681C17.5138 1.86644 17.5323 1.85494 17.5502 1.84238L14.9897 0.404297H14.8909L12.5653 1.71275L12.3325 1.84238L12.3923 1.87883L14.8868 3.28248C14.9024 3.29338 14.9211 3.29923 14.9403 3.29923C14.9595 3.29923 14.9782 3.29338 14.9939 3.28248Z" fill="#FF8501"/>
<path d="M87.6186 27.5041H82.9633C82.1595 27.4967 81.3684 27.7016 80.6727 28.0975C79.9691 28.5034 79.3804 29.0766 78.9609 29.7645C78.5058 30.5222 78.276 31.3903 78.2977 32.27C78.2977 33.0437 78.3904 33.6372 78.5737 34.0342L78.7549 34.4271H73.9328L70.8965 26.0782C70.8849 26.0464 70.8669 26.0173 70.8435 25.9925C70.8202 25.9677 70.792 25.9479 70.7606 25.934C70.7293 25.9202 70.6954 25.9128 70.6611 25.9122C70.6268 25.9115 70.5926 25.9177 70.5608 25.9303L68.5648 26.7364C68.3299 26.8397 67.7923 27.0605 66.9169 27.4089C66.2049 27.6651 65.61 28.1638 65.2401 28.8146C64.9388 29.3207 64.7638 29.8899 64.7293 30.4754C64.7663 31.3482 64.9762 32.2055 65.3473 32.9992L65.9796 34.4332H58.5312C57.6825 34.3542 57.1428 33.86 56.9718 33.0032V32.9485V29.1407C56.9717 29.1013 56.9622 29.0626 56.9441 29.0275C56.9259 28.9924 56.8997 28.9621 56.8674 28.9388C56.8351 28.9155 56.7978 28.9001 56.7583 28.8936C56.7188 28.8872 56.6784 28.8899 56.6402 28.9017L54.4155 29.5944C54.3635 29.6107 54.3182 29.6428 54.286 29.6861C54.2537 29.7295 54.2364 29.7817 54.2363 29.8354C54.2363 32.2842 54.2775 33.779 54.3455 34.2772C54.4135 34.7755 54.7183 35.2657 55.2601 35.7984C56.0676 36.641 57.151 37.0845 58.49 37.123H69.6544C69.6962 37.1228 69.7373 37.1124 69.7741 37.0929C69.8109 37.0734 69.8423 37.0454 69.8654 37.0112C69.8886 36.977 69.9029 36.9377 69.9071 36.8968C69.9112 36.856 69.9051 36.8147 69.8893 36.7767L68.9067 34.4332L68.676 33.8782L67.9365 32.1039C67.7827 31.7762 67.6886 31.4245 67.6584 31.0649C67.6584 31.0405 67.6584 31.0142 67.6584 30.9899C67.6536 30.8102 67.6917 30.6319 67.7697 30.4694C67.7952 30.4157 67.8241 30.3636 67.8562 30.3134C67.9881 30.0826 68.1824 29.8923 68.4177 29.7636C68.653 29.6348 68.9199 29.5728 69.1889 29.5842H69.3949L69.6009 30.1919L69.7925 30.7469L70.1838 31.871L70.7482 33.4914L71.943 36.9346C71.9606 36.9838 71.9932 37.0265 72.0363 37.0569C72.0794 37.0873 72.1309 37.104 72.184 37.1048H77.4387V37.0845H87.874V27.7492C87.8729 27.6834 87.8454 27.6208 87.7976 27.5749C87.7498 27.529 87.6854 27.5035 87.6186 27.5041ZM85.1591 34.4332H82.9633C82.6952 34.4434 82.4282 34.3951 82.1814 34.2918C81.9346 34.1885 81.7141 34.0327 81.5358 33.8357C81.1708 33.3975 80.9844 32.8417 81.0126 32.2761C80.9923 31.7362 81.179 31.2084 81.5358 30.7975C81.7129 30.5984 81.933 30.4406 82.1799 30.3355C82.4268 30.2304 82.6944 30.1806 82.9633 30.1899H85.1591V34.4332Z" fill="#FF8501"/>
<path d="M84.0074 25.6755L86.5081 24.2577L86.5616 24.2253L84.0033 22.7852H83.9044L81.5705 24.1037L81.3398 24.2354L81.3996 24.2718L83.8941 25.6735C83.9104 25.6855 83.9301 25.6921 83.9504 25.6925C83.9707 25.6928 83.9907 25.6869 84.0074 25.6755Z" fill="#FF8501"/>
<path d="M64.3669 38.1934L62.5562 39.2061L60.7477 38.1934H60.6509L58.3211 39.4957L58.0884 39.6254L58.1502 39.6618L60.6447 41.0655C60.6608 41.0763 60.6798 41.082 60.6993 41.082C60.7187 41.082 60.7378 41.0763 60.7538 41.0655L62.5562 40.0527L64.3607 41.0655C64.3768 41.0763 64.3958 41.082 64.4153 41.082C64.4347 41.082 64.4538 41.0763 64.4699 41.0655L66.9685 39.6598L67.0241 39.6254L64.474 38.1934H64.3669Z" fill="#FF8501"/>
<path d="M105.053 30.4479C103.477 31.3533 102.208 33.3119 102.169 34.8898C102.148 35.5329 102.274 36.1724 102.538 36.7613C103.092 37.9928 104 38.8354 105.096 39.4734C105.317 39.601 105.609 39.4552 105.838 39.1108C106.676 37.8677 107.39 36.5477 107.97 35.1693C108.438 34.1243 108.703 33.0025 108.753 31.8617C108.745 31.7152 108.73 31.5692 108.707 31.4242C108.4 29.8322 106.843 29.419 105.053 30.4479ZM105.479 34.8209C104.711 35.1814 104.087 34.8614 104.087 34.1059C104.087 33.3504 104.715 32.4471 105.484 32.0926C106.252 31.7382 106.864 32.0582 106.866 32.8036C106.868 33.5489 106.25 34.4604 105.482 34.8209H105.479Z" fill="#FF8501"/>
<path d="M44.4932 29.7631C44.0771 29.0742 43.4885 28.5017 42.7835 28.1001C42.0831 27.7045 41.2883 27.499 40.4806 27.5047H34.7438C34.6766 27.5047 34.6122 27.5309 34.5647 27.5776C34.5171 27.6244 34.4905 27.6877 34.4905 27.7538V34.4338H17.5233C17.3631 34.4362 17.2042 34.4047 17.0574 34.3414C16.9106 34.2782 16.7794 34.1846 16.6726 34.0672C16.5686 33.9648 16.4868 33.8427 16.4323 33.7083C16.3778 33.5739 16.3516 33.43 16.3554 33.2853L16.3162 5.1314C16.3161 5.09097 16.3061 5.05116 16.287 5.01535C16.2679 4.97955 16.2403 4.94881 16.2065 4.92574C16.1728 4.90267 16.1338 4.88797 16.093 4.88287C16.0522 4.87777 16.0108 4.88242 15.9722 4.89644L13.7867 5.70663C13.7382 5.72472 13.6965 5.75689 13.6671 5.79885C13.6376 5.84082 13.6219 5.8906 13.6219 5.94158V33.2853C13.6104 33.8234 13.7189 34.3574 13.94 34.8498C14.161 35.3422 14.489 35.7809 14.9011 36.1352C15.6233 36.7761 16.5629 37.1286 17.5357 37.1236H37.2033V30.1925H40.4847C40.7539 30.1832 41.0218 30.2329 41.269 30.338C41.5163 30.4431 41.7366 30.6009 41.9142 30.8001C42.2701 31.2115 42.4567 31.7389 42.4374 32.2787C42.4647 32.8442 42.2783 33.3997 41.9142 33.8383C41.7355 34.0354 41.5146 34.1911 41.2675 34.2944C41.0203 34.3977 40.753 34.446 40.4847 34.4358H38.3671C38.3236 34.436 38.2808 34.4472 38.2429 34.4682C38.205 34.4892 38.1732 34.5195 38.1505 34.556C38.1278 34.5925 38.115 34.6341 38.1132 34.6769C38.1115 34.7197 38.1209 34.7622 38.1405 34.8004L39.2796 36.9737C39.3005 37.0142 39.3322 37.0484 39.3715 37.0723C39.4107 37.0962 39.4559 37.1091 39.5021 37.1094L40.4867 37.1256C41.2979 37.1305 42.0958 36.9242 42.7996 36.5275C43.5033 36.1308 44.0876 35.558 44.4932 34.8672C44.9479 34.0766 45.1738 33.1785 45.1462 32.2706C45.1682 31.3915 44.9422 30.5235 44.4932 29.7631Z" fill="#FF8501"/>
<path d="M99.2589 32.2172C96.5124 30.6778 93.7659 29.1358 91.0194 27.591C90.97 27.5626 90.9164 27.5404 90.8402 27.5039V27.749C90.8402 30.8169 90.8402 33.8855 90.8402 36.9547C90.8339 37.0247 90.8504 37.0949 90.8875 37.155C90.9245 37.2151 90.9801 37.262 91.0462 37.2889C93.7927 38.8242 96.535 40.3636 99.2733 41.907L99.4793 42.0082V41.7652C99.4793 38.6973 99.4793 35.6287 99.4793 32.5595C99.4864 32.4864 99.4687 32.4131 99.4287 32.3512C99.3888 32.2892 99.3291 32.242 99.2589 32.2172ZM96.8282 36.9851C96.3732 37.6044 95.759 38.0937 95.0485 38.4029C94.8569 38.488 94.6118 38.3543 94.4305 38.0505C93.5264 36.637 92.8047 35.1184 92.2821 33.5297C92.0802 32.9193 91.9759 32.2818 91.9731 31.6399C92.004 30.3537 93.0648 29.8372 94.3811 30.4672C95.8766 31.1821 97.1763 32.8977 97.4359 34.5059C97.4627 34.672 97.4668 34.828 97.475 34.911C97.491 35.6527 97.2643 36.3798 96.8282 36.9851Z" fill="#FF8501"/>
<path d="M94.7539 32.2181C94.1112 31.8394 93.588 32.0419 93.5859 32.6718C93.5839 33.3018 94.1071 34.1221 94.7498 34.4948C95.3925 34.8674 95.9115 34.6629 95.9095 34.0309C95.9074 33.399 95.3863 32.5969 94.7539 32.2181Z" fill="#FF8501"/>
<path d="M48.3884 21.2832L46.2029 22.0934C46.1541 22.1109 46.112 22.143 46.0825 22.1851C46.053 22.2271 46.0375 22.2772 46.0381 22.3283V36.863C46.0381 36.9293 46.0647 36.9929 46.1122 37.0399C46.1596 37.087 46.2241 37.1137 46.2915 37.1142H48.5161C48.5496 37.1142 48.5827 37.1077 48.6136 37.095C48.6444 37.0824 48.6725 37.0638 48.696 37.0405C48.7196 37.0172 48.7382 36.9894 48.7508 36.959C48.7634 36.9285 48.7698 36.8959 48.7695 36.863L48.7324 21.5161C48.732 21.4758 48.7217 21.4363 48.7025 21.4007C48.6832 21.3652 48.6556 21.3347 48.6219 21.3119C48.5881 21.289 48.5493 21.2745 48.5087 21.2695C48.4681 21.2645 48.4268 21.2692 48.3884 21.2832Z" fill="#FF8501"/>
<path d="M56.6462 7.49479C55.6204 6.4294 54.2705 5.8967 52.5965 5.8967C50.5668 5.8967 49.0597 6.66233 48.0751 8.19358C47.1701 6.65828 45.7701 5.89062 43.875 5.89062C41.9799 5.89062 40.5723 6.59819 39.6523 8.01331V6.51852C39.6496 6.45422 39.6217 6.39342 39.5745 6.34887C39.5273 6.30431 39.4644 6.27946 39.3989 6.27951H36.7211C36.6542 6.27732 36.5892 6.30122 36.5402 6.346C36.4912 6.39077 36.4622 6.45279 36.4595 6.51852V20.5509C36.4595 20.617 36.4862 20.6804 36.5337 20.7271C36.5812 20.7738 36.6456 20.8001 36.7128 20.8001H39.4422C39.4759 20.8001 39.5093 20.7935 39.5404 20.7807C39.5715 20.768 39.5998 20.7493 39.6235 20.7258C39.6473 20.7022 39.666 20.6743 39.6787 20.6436C39.6915 20.6129 39.6979 20.58 39.6976 20.5469L39.6502 16.9395V12.6617C39.6502 11.4033 39.9558 10.4493 40.5669 9.79977C40.8671 9.4804 41.2336 9.22816 41.6416 9.06008C42.0496 8.892 42.4895 8.81201 42.9316 8.82552C43.8201 8.82552 44.5067 9.10166 44.9914 9.65394C45.4762 10.2062 45.7179 10.986 45.7165 11.9933V16.4494H48.9073V12.6617C48.9073 11.3844 49.1984 10.4256 49.7806 9.78559C50.3629 9.14554 51.1457 8.82552 52.1289 8.82552C53.016 8.82552 53.7157 9.10166 54.2279 9.65394C54.7401 10.2062 54.9969 10.986 54.9983 11.9933V20.5509C54.9988 20.6172 55.026 20.6805 55.0738 20.7272C55.1217 20.7739 55.1863 20.8001 55.2537 20.8001H57.9315C57.9987 20.8001 58.0632 20.7738 58.1107 20.7271C58.1582 20.6804 58.1849 20.617 58.1849 20.5509V11.7908C58.1849 9.98814 57.672 8.55613 56.6462 7.49479Z" fill="#240046"/>
<path d="M48.8457 19.4448H48.3658C48.1381 19.4654 47.9109 19.4011 47.7293 19.2645C47.6729 19.2185 47.627 19.1613 47.5944 19.0968C47.5617 19.0323 47.5431 18.9618 47.5398 18.8898C47.5341 18.8295 47.5423 18.7688 47.5637 18.712C47.5851 18.6552 47.6191 18.6038 47.6634 18.5617C47.8693 18.3936 48.2175 18.4382 48.5347 18.5171C48.5874 18.5293 48.6429 18.5206 48.6892 18.4928C48.7339 18.4631 48.765 18.4173 48.7757 18.3652L48.9425 17.4457L48.8169 17.4133C48.6726 17.3749 48.5261 17.3452 48.3781 17.3241C47.5913 17.2127 47.0104 17.3566 46.6602 17.7029C46.5267 17.8272 46.4203 17.977 46.3477 18.1432C46.2751 18.3093 46.2378 18.4882 46.2379 18.6691C46.2337 18.8692 46.2812 19.0671 46.3759 19.2443C46.413 19.3132 46.4542 19.382 46.4934 19.4468H46.0361C45.9814 19.4468 45.929 19.4682 45.8904 19.5062C45.8518 19.5441 45.8301 19.5957 45.8301 19.6494V20.4434C45.8301 20.4971 45.8518 20.5486 45.8904 20.5866C45.929 20.6246 45.9814 20.6459 46.0361 20.6459H48.8457C48.9004 20.6459 48.9528 20.6246 48.9914 20.5866C49.03 20.5486 49.0517 20.4971 49.0517 20.4434V19.6332C49.0481 19.582 49.0247 19.534 48.9865 19.499C48.9483 19.4641 48.8979 19.4447 48.8457 19.4448Z" fill="#FF8501"/>
</g>
<defs>
<clipPath id="clip0_563_24642">
<rect width="109" height="42" fill="white"/>
</clipPath>
</defs>
</svg>
