<svg width="30" height="26" viewBox="0 0 30 26" fill="none" xmlns="http://www.w3.org/2000/svg">
<path d="M26.25 9.25C26.94 9.25 27.5 9.81125 27.5 10.5V21.75C27.5 22.4387 26.94 23 26.25 23H3.75C3.06 23 2.5 22.4387 2.5 21.75V10.5C2.5 9.81125 3.06 9.25 3.75 9.25H26.25ZM26.25 6.75H3.75C1.67875 6.75 0 8.42875 0 10.5V21.75C0 23.8212 1.67875 25.5 3.75 25.5H26.25C28.3212 25.5 30 23.8212 30 21.75V10.5C30 8.42875 28.3212 6.75 26.25 6.75ZM11.25 0.5C9.87 0.5 8.75 1.62 8.75 3V5.5H11.25V3.625C11.25 3.28 11.53 3 11.875 3H18.125C18.47 3 18.75 3.28 18.75 3.625V5.5H21.25V3C21.25 1.62 20.13 0.5 18.75 0.5H11.25ZM24.375 11.75H5.625C5.28 11.75 5 12.03 5 12.375C5 12.72 5.28 13 5.625 13H24.375C24.72 13 25 12.72 25 12.375C25 12.03 24.72 11.75 24.375 11.75ZM24.375 15.5H5.625C5.28 15.5 5 15.78 5 16.125C5 16.47 5.28 16.75 5.625 16.75H24.375C24.72 16.75 25 16.47 25 16.125C25 15.78 24.72 15.5 24.375 15.5ZM24.375 19.25H5.625C5.28 19.25 5 19.53 5 19.875C5 20.22 5.28 20.5 5.625 20.5H24.375C24.72 20.5 25 20.22 25 19.875C25 19.53 24.72 19.25 24.375 19.25Z" fill="#7E858B"/>
</svg>
