<svg width="30" height="18" viewBox="0 0 30 18" fill="none" xmlns="http://www.w3.org/2000/svg">
<path d="M2.81274 16.2285H4.6877V17.441H2.81274V16.2285Z" fill="#7E858B"/>
<path d="M25.313 16.2285H27.1879V17.441H25.313V16.2285Z" fill="#7E858B"/>
<path fill-rule="evenodd" clip-rule="evenodd" d="M4.39934 7.12772V12.0968H25.601V7.12772C25.6019 6.70415 25.7703 6.29817 26.0693 5.99843C26.3686 5.69872 26.7741 5.52934 27.1977 5.52772C27.1977 0.558594 26.7009 0.558594 15.0133 0.558594C3.32577 0.558594 2.84542 0.558594 2.82886 5.52772H2.82909C3.2478 5.53627 3.64663 5.70866 3.9401 6.00767C4.23357 6.30669 4.39833 6.70879 4.39926 7.12774L4.39934 7.12772Z" fill="#7E858B"/>
<path fill-rule="evenodd" clip-rule="evenodd" d="M29.0627 6.19043H27.1878C26.9415 6.1939 26.7065 6.29418 26.5334 6.46958C26.3606 6.64496 26.2635 6.88159 26.2635 7.12793V12.7595H3.73679V7.12793C3.73679 6.87929 3.63789 6.64081 3.46204 6.46496C3.28618 6.28911 3.04794 6.19044 2.79931 6.19044H0.937485C0.688845 6.19044 0.450368 6.28911 0.27452 6.46496C0.0986664 6.64082 0 6.87929 0 7.12793V14.6343C0 14.8829 0.0986723 15.1214 0.27452 15.2972C0.450374 15.4731 0.688845 15.5718 0.937485 15.5718H29.0627H29.0625C29.3112 15.5718 29.5496 15.4731 29.7255 15.2972C29.9013 15.1214 30 14.8829 30 14.6343V7.12793C30 6.87929 29.9013 6.64081 29.7255 6.46496C29.5496 6.28911 29.3112 6.19044 29.0625 6.19044L29.0627 6.19043Z" fill="#7E858B"/>
</svg>
