<svg width="24" height="28" viewBox="0 0 24 28" fill="none" xmlns="http://www.w3.org/2000/svg">
<path d="M2 27.75C2.33152 27.75 2.64946 27.6183 2.88388 27.3839C3.1183 27.1495 3.25 26.8315 3.25 26.5V25.25H20.75V26.5C20.75 26.8315 20.8817 27.1495 21.1161 27.3839C21.3505 27.6183 21.6685 27.75 22 27.75C22.3315 27.75 22.6495 27.6183 22.8839 27.3839C23.1183 27.1495 23.25 26.8315 23.25 26.5V1.5C23.25 1.16848 23.1183 0.850537 22.8839 0.616116C22.6495 0.381696 22.3315 0.25 22 0.25H2C1.66848 0.25 1.35054 0.381696 1.11612 0.616116C0.881696 0.850537 0.75 1.16848 0.75 1.5V26.5C0.75 26.8315 0.881696 27.1495 1.11612 27.3839C1.35054 27.6183 1.66848 27.75 2 27.75ZM20.75 15.25H3.25V10.25H20.75V15.25ZM3.25 17.75H20.75V22.75H3.25V17.75ZM3.25 2.75H20.75V7.75H3.25V2.75ZM14.5 20.25C14.5 20.5815 14.3683 20.8995 14.1339 21.1339C13.8995 21.3683 13.5815 21.5 13.25 21.5H10.75C10.4185 21.5 10.1005 21.3683 9.86612 21.1339C9.6317 20.8995 9.5 20.5815 9.5 20.25C9.5 19.9185 9.6317 19.6005 9.86612 19.3661C10.1005 19.1317 10.4185 19 10.75 19H13.25C13.5815 19 13.8995 19.1317 14.1339 19.3661C14.3683 19.6005 14.5 19.9185 14.5 20.25ZM9.5 12.75C9.5 12.4185 9.6317 12.1005 9.86612 11.8661C10.1005 11.6317 10.4185 11.5 10.75 11.5H13.25C13.5815 11.5 13.8995 11.6317 14.1339 11.8661C14.3683 12.1005 14.5 12.4185 14.5 12.75C14.5 13.0815 14.3683 13.3995 14.1339 13.6339C13.8995 13.8683 13.5815 14 13.25 14H10.75C10.4185 14 10.1005 13.8683 9.86612 13.6339C9.6317 13.3995 9.5 13.0815 9.5 12.75ZM14.5 5.25C14.5 5.58152 14.3683 5.89946 14.1339 6.13388C13.8995 6.3683 13.5815 6.5 13.25 6.5H10.75C10.4185 6.5 10.1005 6.3683 9.86612 6.13388C9.6317 5.89946 9.5 5.58152 9.5 5.25C9.5 4.91848 9.6317 4.60054 9.86612 4.36612C10.1005 4.1317 10.4185 4 10.75 4H13.25C13.5815 4 13.8995 4.1317 14.1339 4.36612C14.3683 4.60054 14.5 4.91848 14.5 5.25Z" fill="#7E858B"/>
</svg>
