<svg width="20" height="20" viewBox="0 0 20 20" fill="none" xmlns="http://www.w3.org/2000/svg">
<path d="M6.69551 12.4186H6.20025C6.20266 12.3995 6.20737 12.3805 6.20737 12.3591V9.48036C6.20737 9.46129 6.20496 9.43991 6.20025 9.42084H6.69551C6.92407 9.42084 7.10978 9.23514 7.10978 9.00657V6.13009C7.10978 5.90153 6.92408 5.71582 6.69551 5.71582H3.81426C3.5857 5.71582 3.39999 5.90152 3.39999 6.13009V9.00881C3.39999 9.02789 3.4024 9.04926 3.40711 9.06834H2.91427C2.68571 9.06834 2.5 9.25404 2.5 9.48261V12.3613C2.5 12.5899 2.6857 12.7756 2.91427 12.7756H3.40953C3.40712 12.7947 3.4024 12.8137 3.4024 12.8351V15.7138C3.4024 15.9424 3.5881 16.1281 3.81667 16.1281H6.69539C6.92396 16.1281 7.10966 15.9424 7.10966 15.7138V12.8329C7.10736 12.6042 6.92155 12.4185 6.69539 12.4185L6.69551 12.4186ZM3.75729 9.00893V6.13021C3.75729 6.09688 3.78349 6.07068 3.81681 6.07068H6.69554C6.72886 6.07068 6.75506 6.09688 6.75506 6.13021V9.00893C6.75506 9.04226 6.72886 9.06846 6.69554 9.06846H3.81429C3.78337 9.06846 3.75718 9.03995 3.75718 9.00893H3.75729ZM2.85489 12.3591V9.48039C2.85489 9.44707 2.88109 9.42087 2.91441 9.42087H5.79314C5.82646 9.42087 5.85266 9.44707 5.85266 9.48039V12.3591C5.85266 12.3924 5.82646 12.4186 5.79314 12.4186H2.91441C2.88109 12.4186 2.85489 12.3924 2.85489 12.3591ZM6.75259 15.7118C6.75259 15.7452 6.72639 15.7714 6.69306 15.7714H3.81434C3.78101 15.7714 3.75481 15.7452 3.75481 15.7118V12.8331C3.75481 12.7998 3.78101 12.7736 3.81434 12.7736H6.69306C6.72639 12.7736 6.75259 12.7998 6.75259 12.8331V15.7118Z" fill="#7E858B"/>
<path d="M6.16202 8.29933V6.83729C6.16202 6.73962 6.08342 6.66113 5.98585 6.66113H4.52382C4.42614 6.66113 4.34766 6.73973 4.34766 6.83729V8.29933C4.34766 8.397 4.42626 8.47549 4.52382 8.47549H5.98585C6.08353 8.47801 6.16202 8.397 6.16202 8.29933ZM5.80727 8.12317H4.70009V7.01599H5.80727V8.12317Z" fill="#7E858B"/>
<path d="M5.40975 11.7118C5.44066 11.6547 5.43836 11.5856 5.40262 11.5308L4.50022 10.1188C4.43598 10.0164 4.26684 10.0164 4.20261 10.1188L3.30021 11.5308C3.26447 11.5856 3.26206 11.6547 3.29308 11.7118C3.324 11.7689 3.38352 11.8046 3.44787 11.8046H5.25278C5.31921 11.8046 5.37872 11.7689 5.40975 11.7118ZM3.77386 11.4499L4.35244 10.5451L4.93102 11.4499H3.77386Z" fill="#7E858B"/>
<path d="M9.84568 13.252C9.31467 13.252 8.88135 13.6853 8.88135 14.2163C8.88135 14.314 8.95995 14.3925 9.05751 14.3925C9.15518 14.3925 9.23367 14.3139 9.23367 14.2163C9.23367 13.8805 9.5075 13.6067 9.84329 13.6067C9.94096 13.6067 10.0194 13.5281 10.0194 13.4305C10.0243 13.3304 9.94336 13.252 9.84568 13.252Z" fill="#7E858B"/>
<path d="M14.6435 13.252C14.1125 13.252 13.6792 13.6853 13.6792 14.2163C13.6792 14.314 13.7578 14.3925 13.8554 14.3925C13.953 14.3925 14.0315 14.3139 14.0315 14.2163C14.0315 13.8805 14.3054 13.6067 14.6411 13.6067C14.7388 13.6067 14.8173 13.5281 14.8173 13.4305C14.8198 13.3304 14.7412 13.252 14.6435 13.252Z" fill="#7E858B"/>
<path d="M11.7269 8.03309C11.8222 8.06882 11.9412 8.09261 12.0674 8.10456V8.35691C12.0674 8.44264 11.9983 8.5117 11.9126 8.5117C11.8269 8.5117 11.7578 8.44264 11.7578 8.35691C11.7578 8.25924 11.6792 8.18075 11.5817 8.18075C11.484 8.18075 11.4055 8.25935 11.4055 8.35691C11.4055 8.63788 11.6341 8.86643 11.915 8.86643C12.0436 8.86643 12.158 8.81644 12.2484 8.74025C12.3388 8.81885 12.4532 8.86643 12.5818 8.86643C12.8627 8.86643 13.0913 8.63787 13.0913 8.35691C13.0913 8.25924 13.0127 8.18075 12.9151 8.18075C12.8174 8.18075 12.739 8.25935 12.739 8.35691C12.739 8.44264 12.6699 8.5117 12.5842 8.5117C12.4984 8.5117 12.4294 8.44264 12.4294 8.35691V8.10456C12.777 8.07365 13.0961 7.94506 13.0961 7.65928C13.0961 7.19492 12.7175 6.81641 12.2532 6.81641C11.7889 6.81641 11.4104 7.19504 11.4104 7.65928C11.4007 7.75685 11.4436 7.93071 11.7269 8.03309ZM12.2436 7.17113C12.5103 7.17113 12.7269 7.38544 12.7317 7.64975C12.696 7.68789 12.5245 7.75685 12.2436 7.75685C11.9506 7.75685 11.7769 7.68307 11.7554 7.65917C11.7555 7.39257 11.9745 7.17113 12.2436 7.17113Z" fill="#7E858B"/>
<path d="M17.1009 9.48771C16.8128 9.20191 16.4151 9.05669 16.0104 9.09482C15.608 9.13056 15.2437 9.34246 15.0128 9.6734L14.7127 10.102C14.4604 9.80909 14.177 9.56146 13.877 9.36381C14.4866 8.88048 14.8795 8.13759 14.8795 7.30173C14.8795 6.93747 14.8033 6.57548 14.6605 6.24694C15.0486 6.02309 15.301 5.5993 15.301 5.14448C15.301 4.44203 14.7295 3.86816 14.0247 3.86816C13.4746 3.86816 12.9937 4.22061 12.8198 4.73013C12.4436 4.64681 12.0436 4.64681 11.6698 4.73013C11.4959 4.22061 11.015 3.86816 10.4649 3.86816C9.76245 3.86816 9.18859 4.43962 9.18859 5.14448C9.18859 5.60643 9.43381 6.02311 9.8291 6.24694C9.68627 6.57559 9.61008 6.93744 9.61008 7.30173C9.61008 8.13748 10.003 8.88281 10.6126 9.36381C10.315 9.56146 10.0316 9.80909 9.77683 10.102L9.47681 9.6734C9.24583 9.34245 8.88156 9.13055 8.47672 9.09482C8.06958 9.05667 7.67669 9.20192 7.39092 9.49012C7.10283 9.77822 6.9599 10.1735 6.99563 10.5783C7.03136 10.9832 7.24326 11.3474 7.5742 11.5784L8.6838 12.3546C8.6576 12.4856 8.63622 12.6189 8.62427 12.7547C8.20518 13.1047 7.93616 13.6309 7.93616 14.2214C7.93616 15.2739 8.79341 16.131 9.84578 16.131C10.1672 16.131 10.4696 16.05 10.7339 15.9096C11.1983 16.0548 11.7054 16.131 12.2435 16.131C12.7817 16.131 13.2889 16.0548 13.7531 15.9096C14.0198 16.0501 14.3199 16.131 14.6413 16.131C15.6938 16.131 16.5509 15.2738 16.5509 14.2214C16.5509 13.6333 16.2819 13.1047 15.8628 12.7547C15.8508 12.6165 15.8319 12.4832 15.8057 12.3522L16.9153 11.5784C17.2462 11.3474 17.4581 10.9832 17.4938 10.5807C17.5319 10.1735 17.389 9.77589 17.1009 9.48771ZM9.96223 7.29954C9.96223 6.93286 10.0455 6.58524 10.2099 6.26614C10.2146 6.25901 10.2194 6.25189 10.2241 6.24476C10.2432 6.21144 10.2623 6.1757 10.2812 6.14237C10.3288 6.06136 10.3026 5.95668 10.2241 5.90428C10.205 5.89233 10.1837 5.8852 10.1622 5.88049C10.1551 5.87808 10.1479 5.88049 10.1408 5.88049C10.1266 5.88049 10.1146 5.87808 10.1004 5.88049C10.0908 5.8829 10.0837 5.8852 10.0766 5.88761C10.0646 5.89233 10.0528 5.89474 10.0432 5.90186C10.0361 5.90658 10.029 5.9114 10.0219 5.91853C10.0147 5.92324 10.0076 5.92806 10.0028 5.93278C9.72182 5.76845 9.54797 5.47083 9.54797 5.13988C9.54797 4.63266 9.96224 4.2184 10.4695 4.2184C10.9123 4.2184 11.2934 4.53509 11.3743 4.97324C11.3838 5.02323 11.4124 5.06609 11.4553 5.09229C11.4981 5.11849 11.5505 5.12561 11.5981 5.11136C12.0196 4.98519 12.4792 4.98519 12.9006 5.11136C12.9482 5.12561 13.0006 5.11849 13.0435 5.09229C13.0863 5.06609 13.1149 5.02323 13.1245 4.97324C13.2055 4.53509 13.5864 4.2184 14.0293 4.2184C14.5365 4.2184 14.9508 4.63266 14.9508 5.13988C14.9508 5.52081 14.7198 5.85659 14.3651 5.99471C14.3175 6.01379 14.2818 6.04952 14.2627 6.0971C14.246 6.14467 14.2484 6.19707 14.2722 6.24235C14.4437 6.56858 14.5318 6.92333 14.5318 7.29955C14.5318 8.5568 13.5079 9.57825 12.2507 9.57825C10.9933 9.57825 9.96223 8.55668 9.96223 7.29954ZM8.29073 14.2166C8.29073 13.3593 8.98835 12.6617 9.8456 12.6617C10.7028 12.6617 11.4005 13.3593 11.4005 14.2166C11.4005 15.0738 10.7028 15.7714 9.8456 15.7714C8.98835 15.7714 8.29073 15.0737 8.29073 14.2166ZM16.1984 14.2166C16.1984 15.0738 15.5008 15.7714 14.6435 15.7714C13.7863 15.7714 13.0886 15.0738 13.0886 14.2166C13.0886 13.3593 13.7863 12.6617 14.6435 12.6617C15.5008 12.6617 16.1984 13.3593 16.1984 14.2166ZM16.7151 11.2828L15.5079 12.1234C15.4483 12.1639 15.4197 12.24 15.4364 12.3091C15.4506 12.371 15.4626 12.433 15.4721 12.4972C15.2221 12.3758 14.9411 12.3044 14.6435 12.3044C13.591 12.3044 12.7339 13.1616 12.7339 14.214C12.7339 14.7807 12.9839 15.2903 13.3791 15.6403C13.0244 15.726 12.6433 15.7689 12.2433 15.7689C11.8433 15.7689 11.4647 15.726 11.1099 15.6403C11.5052 15.2903 11.7551 14.7807 11.7551 14.214C11.7551 13.1615 10.8979 12.3044 9.84553 12.3044C9.54792 12.3044 9.26695 12.3759 9.01449 12.4972C9.02644 12.433 9.03587 12.371 9.05023 12.3091V12.3067V12.3043C9.12883 11.9352 9.25971 11.5709 9.4384 11.2233C9.48367 11.1352 9.44793 11.0305 9.36221 10.9852C9.27407 10.9399 9.16938 10.9757 9.12411 11.0614C8.97174 11.3566 8.85269 11.6638 8.76695 11.9757L7.77399 11.2828C7.52877 11.1114 7.37156 10.8424 7.34538 10.5423C7.31918 10.2423 7.42639 9.94937 7.6383 9.73746C7.8502 9.52556 8.14552 9.41836 8.44316 9.44454C8.74077 9.47074 9.01219 9.62794 9.18366 9.87315L9.6194 10.4946C9.65272 10.5399 9.70271 10.5684 9.75993 10.5708C9.81474 10.5661 9.86944 10.547 9.90518 10.5017C10.2052 10.116 10.5577 9.8017 10.9339 9.58025C11.322 9.8041 11.7672 9.9327 12.2458 9.9327C12.7244 9.9327 13.1721 9.8017 13.5578 9.58025C13.9269 9.79928 14.2769 10.1064 14.5721 10.4851C14.5768 10.4922 14.5792 10.497 14.5841 10.5041C14.6912 10.6423 14.7841 10.778 14.8722 10.9161C14.9222 10.9994 15.0317 11.0256 15.1151 10.9732C15.1984 10.9232 15.2246 10.8137 15.1746 10.7303C15.108 10.6208 15.0318 10.504 14.9436 10.3874L15.3056 9.87064C15.477 9.62542 15.746 9.46821 16.0438 9.44203C16.3438 9.41583 16.639 9.52063 16.851 9.73254C17.0629 9.94685 17.1701 10.2398 17.1439 10.5397C17.1152 10.8424 16.9604 11.1114 16.7152 11.2828L16.7151 11.2828Z" fill="#7E858B"/>
<path d="M11.46 6.57748C11.46 6.70771 11.3544 6.81317 11.2243 6.81317C11.0941 6.81317 10.9885 6.70771 10.9885 6.57748C10.9885 6.44725 11.0941 6.3418 11.2243 6.3418C11.3544 6.3418 11.46 6.44725 11.46 6.57748Z" fill="#7E858B"/>
<path d="M13.5008 6.57748C13.5008 6.70771 13.3952 6.81317 13.2651 6.81317C13.1349 6.81317 13.0293 6.70771 13.0293 6.57748C13.0293 6.44725 13.1349 6.3418 13.2651 6.3418C13.3952 6.3418 13.5008 6.44725 13.5008 6.57748Z" fill="#7E858B"/>
<path d="M5.25499 13.4307C4.79063 13.4307 4.41211 13.8093 4.41211 14.2735C4.41211 14.7379 4.79074 15.1164 5.25499 15.1164C5.71935 15.1164 6.09787 14.7378 6.09787 14.2735C6.09787 13.8092 5.71924 13.4307 5.25499 13.4307ZM5.25499 14.7593C4.98598 14.7593 4.76683 14.5403 4.76683 14.2711C4.76683 14.0021 4.98585 13.783 5.25499 13.783C5.524 13.783 5.74315 14.002 5.74315 14.2711C5.74304 14.5402 5.52401 14.7593 5.25499 14.7593Z" fill="#7E858B"/>
</svg>
