<svg width="15" height="16" viewBox="0 0 15 16" fill="none" xmlns="http://www.w3.org/2000/svg">
<path d="M5.40674 4.6356L7.64158 6.60207L8.59697 6.12922C8.96117 5.68033 10.505 3.61364 9.74723 1.70686C9.6435 1.44583 9.4993 1.19736 9.31783 0.966797C8.98397 1.12548 8.66054 1.30513 8.34882 1.50492C7.13901 2.28075 6.12346 3.36179 5.40685 4.63555L5.40674 4.6356Z" fill="#7E858B"/>
<path d="M4.34723e-05 4.63595L2.23489 6.60242L3.14491 6.15203V1.37988C3.07685 1.42099 3.00912 1.46263 2.94224 1.50555C1.73233 2.28116 0.716776 3.36223 0 4.63591L4.34723e-05 4.63595Z" fill="#7E858B"/>
<path d="M11.0569 6.4502L10.1089 7.01334L11.0569 7.57638V6.4502Z" fill="#7E858B"/>
<path d="M10.9989 0.366351C10.4997 0.490527 10.0162 0.655477 9.55171 0.859951C9.73084 1.09595 9.87462 1.34908 9.98004 1.61449C10.783 3.63526 9.19623 5.78575 8.80006 6.27676C8.75129 7.3951 8.66311 8.52565 8.53755 9.63777C8.38441 10.9953 8.17151 12.3636 7.90496 13.7049C7.82999 14.0819 8.05555 14.4461 8.42956 14.5518L12.112 15.5934L12.1119 7.13798H11.3075V7.79592C11.3075 7.84097 11.2833 7.8825 11.2443 7.90487C11.225 7.91584 11.2037 7.92127 11.1823 7.92127C11.1601 7.92127 11.138 7.91541 11.1183 7.9037L9.79964 7.12043C9.76162 7.09785 9.73829 7.05695 9.73829 7.01276C9.73829 6.96856 9.76162 6.92756 9.79964 6.90509L11.1183 6.1219C11.1569 6.0989 11.2051 6.09847 11.2443 6.12073C11.2835 6.14299 11.3075 6.18463 11.3075 6.22968V6.88762H12.1119V1.2973C11.5109 0.98165 11.1391 0.550019 10.9988 0.366211L10.9989 0.366351Z" fill="#7E858B"/>
<path d="M7.6592 13.6557C7.92449 12.3213 8.1362 10.9598 8.2886 9.60931C8.40702 8.55935 8.4918 7.493 8.54163 6.43614L7.67742 6.86393C7.63184 6.8864 7.5772 6.87927 7.53908 6.84572L5.16538 4.75712C5.1214 4.71835 5.11011 4.65435 5.13833 4.6028C5.78188 3.42858 6.67134 2.4095 7.73068 1.62702C6.523 1.46366 5.79701 0.63309 5.59243 0.366211C4.81821 0.558757 4.08167 0.849696 3.39551 1.23343V15.106C3.39551 15.3969 3.63513 15.6335 3.92959 15.6335H11.3343L8.3615 14.7927C7.86874 14.6534 7.56031 14.1539 7.65925 13.6558L7.6592 13.6557Z" fill="#7E858B"/>
<path d="M13.1603 6.88772H12.5898C12.5206 6.88772 12.4646 6.94384 12.4646 7.01296C12.4646 7.08218 12.5207 7.1382 12.5898 7.1382H13.1603C14.0366 7.1382 14.7494 7.84331 14.7494 8.70998C14.7494 9.57665 14.0366 10.2818 13.1603 10.2818C13.0911 10.2818 13.0351 10.3379 13.0351 10.407C13.0351 10.4762 13.0912 10.5322 13.1603 10.5322C14.1747 10.5322 15 9.71478 15 8.70986C15 7.70515 14.1747 6.88772 13.1603 6.88772Z" fill="#7E858B"/>
</svg>
