<svg width="20" height="20" viewBox="0 0 20 20" fill="none" xmlns="http://www.w3.org/2000/svg">
<path d="M3.53473 10.2276V11.0347C3.39191 11.0347 3.27608 11.1505 3.27608 11.2934V12.3278H4.31057V11.2934C4.31057 11.1505 4.19475 11.0347 4.05192 11.0347V10.2276C4.27092 10.174 4.46984 10.0536 4.63358 9.88511C4.77692 10.3219 5.14668 10.6569 5.60373 10.75V11.5519C5.46091 11.5519 5.34508 11.6677 5.34508 11.8106V12.3278H6.37957V11.8106C6.37957 11.6677 6.26374 11.5519 6.12092 11.5519V10.75C6.71042 10.6299 7.15541 10.1074 7.15541 9.4829V7.15527H6.63821V8.70697H6.121V7.15527L5.60372 7.15538V8.70707H5.08643V7.15538H4.56923V7.46655C4.35295 7.2713 4.08427 7.15538 3.79338 7.15538C3.08032 7.15538 2.50024 7.85149 2.50024 8.70707C2.50024 9.45646 2.94523 10.0834 3.53473 10.2276Z" fill="#7E858B"/>
<path d="M10.8914 6.31781L12.1476 7.15529H13.0254L14.2816 6.31781C14.3537 6.26978 14.3968 6.18932 14.3968 6.10258V2.75865C14.3968 2.61604 14.2808 2.5 14.1382 2.5H11.0348C10.8922 2.5 10.7761 2.61604 10.7761 2.75865V6.10258C10.7762 6.18932 10.8193 6.26967 10.8914 6.31781H10.8914ZM13.3624 3.5345H13.8796V5.60348H13.3624V3.5345ZM12.328 3.01722H12.8452V5.6034H12.328V3.01722ZM11.2935 3.5345H11.8107V5.60348H11.2935V3.5345Z" fill="#7E858B"/>
<path d="M15.1725 8.70675C15.0854 8.70675 14.9991 8.70006 14.9138 8.6875L14.9139 9.74125H15.4311V8.68804C15.346 8.70038 15.2596 8.70675 15.1725 8.70675Z" fill="#7E858B"/>
<path d="M12.0884 12.328H13.0846L12.8629 9.22461H12.31L12.0884 12.328Z" fill="#7E858B"/>
<path d="M14.6826 12.3278H15.6627L15.4558 10.2588H14.8895L14.6826 12.3278Z" fill="#7E858B"/>
<path d="M15.1725 7.15515C15.4849 7.15515 15.9483 6.50361 15.9483 5.60345C15.9483 4.70329 15.4849 4.05176 15.1725 4.05176C15.0958 4.05176 15.0044 4.09623 14.9138 4.17491V6.10254C14.9138 6.32813 14.8164 6.53958 14.6494 6.68586C14.8162 6.99421 15.0274 7.15515 15.1725 7.15515Z" fill="#7E858B"/>
<path d="M13.79 7.26721C14.1342 7.84908 14.6391 8.18995 15.1724 8.18995C16.1707 8.18995 16.9828 7.02981 16.9828 5.60377C16.9828 4.17772 16.1706 3.01758 15.1724 3.01758C15.0857 3.01758 14.9993 3.02668 14.9138 3.04436V3.58019C14.9989 3.55036 15.0856 3.53478 15.1724 3.53478C15.5088 3.53478 15.8446 3.7681 16.0934 4.17511C16.3334 4.56739 16.4656 5.07485 16.4656 5.60376C16.4656 6.13267 16.3334 6.64004 16.0934 7.0324C15.8446 7.4393 15.5089 7.67263 15.1724 7.67263C14.8164 7.67263 14.4678 7.41367 14.2205 6.98017L13.79 7.26721Z" fill="#7E858B"/>
<path d="M17.2414 12.8447H2.75865C2.61604 12.8447 2.5 12.9608 2.5 13.1034V15.9483H17.5V13.1034C17.5 12.9608 17.384 12.8447 17.2414 12.8447H17.2414Z" fill="#7E858B"/>
<path d="M9.74146 8.70703H10.2587V9.74152H9.74146V8.70703Z" fill="#7E858B"/>
<path d="M12.3279 7.67188H12.8451V8.70637H12.3279V7.67188Z" fill="#7E858B"/>
<path d="M3.79347 17.5003H16.2073C16.8317 17.5003 17.3542 17.0553 17.4744 16.4658H2.52637C2.64649 17.0553 3.1689 17.5003 3.79347 17.5003Z" fill="#7E858B"/>
<path d="M9.13606 7.98591L9.54401 8.18994H10.4564L10.8643 7.98591C11.1289 7.85366 11.2932 7.58769 11.2932 7.292V7.20767L10.6042 6.74835C10.3879 6.60406 10.2588 6.36277 10.2588 6.10276V3.01758H8.96568C8.82307 3.01758 8.70703 3.13361 8.70703 3.27623V7.29221C8.70703 7.588 8.87141 7.85388 9.13603 7.98612L9.13606 7.98591ZM9.22437 7.15545H10.7761V7.67265H9.22437V7.15545Z" fill="#7E858B"/>
<path d="M9.51001 12.3278H10.4902L10.2833 10.2588H9.71688L9.51001 12.3278Z" fill="#7E858B"/>
</svg>
