<svg width="16" height="18" viewBox="0 0 16 18" fill="none" xmlns="http://www.w3.org/2000/svg">
<path d="M0.796022 15.8793L4.45342 17.2477C4.484 17.2589 4.57913 17.2762 4.61181 17.2762C4.63053 17.2762 4.65077 17.2741 4.66949 17.2699L10.1769 16.0953C10.7062 16.8351 11.5933 17.2762 12.5887 17.2762C14.2489 17.2762 15.5 16.0932 15.5 14.5247C15.5 14.4337 15.4813 14.3483 15.4729 14.2593C15.475 14.2448 15.4813 14.2322 15.4813 14.217V11.8844C15.4813 10.1248 15.1979 8.77654 14.897 7.3496C14.5928 5.90266 14.2788 4.40773 14.2155 2.31261H14.5733C14.7268 2.31261 14.8511 2.18829 14.8511 2.03478V1.73603C14.8511 1.17817 14.3967 0.724609 13.839 0.724609H11.0352C10.4774 0.724609 10.0238 1.17826 10.0238 1.73603V2.03478C10.0238 2.18829 10.1488 2.31261 10.3016 2.31261H10.717C10.6642 4.01525 10.4406 5.33439 10.1794 6.59996L9.21732 5.44609V3.84773C9.21732 3.71783 9.16103 3.59351 9.06172 3.50524C8.9645 3.41977 8.83529 3.38023 8.7047 3.39546L3.79274 3.99285C3.56493 4.02204 3.39339 4.2166 3.39339 4.44582V6.16511L0.701537 7.92197C0.700142 7.92267 0.698048 7.92267 0.696653 7.92406C0.695257 7.92476 0.695257 7.92616 0.693862 7.92755L0.689675 7.93034C0.649437 7.95674 0.621642 7.99361 0.60071 8.03315C0.542332 8.11095 0.5 8.19991 0.5 8.29992V15.4537C0.500116 15.6418 0.619549 15.8134 0.796084 15.8794L0.796022 15.8793ZM9.88965 15.5882L4.82764 16.6678L4.85125 9.71709L10.9031 8.42228V12.1505C10.1383 12.6923 9.67568 13.5704 9.67568 14.5249C9.6758 14.8972 9.7508 15.2577 9.88966 15.5883L9.88965 15.5882ZM12.5871 16.7206C11.7264 16.7206 10.9657 16.3288 10.5531 15.6716C10.3391 15.3326 10.2314 14.9464 10.2314 14.5247C10.2314 13.6474 10.7134 12.8478 11.4909 12.4393C11.8257 12.2629 12.2044 12.1691 12.5864 12.1691C13.8854 12.1691 14.942 13.2256 14.942 14.5247C14.9426 15.7765 13.9305 16.7206 12.5871 16.7206ZM12.8399 10.6657C12.7537 10.7818 12.6995 10.9054 12.6607 11.0283C12.5927 10.9575 12.5086 10.9005 12.4016 10.8685C12.2558 10.8255 12.1001 10.9081 12.0563 11.0554C12.0126 11.2026 12.0958 11.3575 12.2432 11.4014C12.2814 11.4125 12.3078 11.5112 12.3168 11.6292C12.0208 11.657 11.7318 11.7299 11.4596 11.8446V8.29911C11.4596 8.28795 11.4533 8.27829 11.4526 8.26713C11.5283 8.07885 11.6061 7.89475 11.6937 7.73021H13.2004C13.3651 8.05944 13.7582 8.95419 13.9013 10.138C13.4157 10.1913 13.0657 10.3637 12.8399 10.6658L12.8399 10.6657ZM14.2272 10.6685C14.2654 10.6685 14.305 10.6692 14.3459 10.6706C14.309 11.0748 13.9069 11.3694 13.1448 11.5486C13.1371 11.3825 13.1587 11.1659 13.2873 10.9956C13.4513 10.779 13.7674 10.6685 14.2272 10.6685ZM14.9246 11.8841V12.8046C14.6412 12.4205 14.2667 12.1099 13.8319 11.9029C14.5613 11.6035 14.8218 11.1805 14.8823 10.8061C14.9066 11.1519 14.9246 11.5063 14.9246 11.8841ZM10.5801 1.75652V1.7357C10.5801 1.48428 10.7843 1.27994 11.0351 1.27994H13.838C14.0895 1.27994 14.2938 1.48415 14.2938 1.7357L10.5801 1.75652ZM11.2733 2.31229H13.6587C13.7227 4.46502 14.0435 5.98844 14.3533 7.46391C14.5444 8.37461 14.7208 9.26239 14.8264 10.2343C14.7813 10.1808 14.7174 10.1439 14.6423 10.1357C14.5743 10.1287 14.5215 10.1343 14.4569 10.1301C14.2707 8.48161 13.6358 7.36111 13.6073 7.31249C13.5573 7.22701 13.4663 7.17491 13.367 7.17491H11.5296C11.4303 7.17491 11.3392 7.22771 11.2892 7.31319C11.2198 7.43262 11.1538 7.56112 11.0906 7.69313L10.6329 7.14432C10.9378 5.71334 11.2151 4.26151 11.2733 2.31245L11.2733 2.31229ZM8.82462 5.84375L10.5619 7.92706L4.76903 9.16628L4.02523 6.54466L8.82462 5.84375ZM3.94958 4.53358L8.66087 3.9598V5.30603L3.94958 5.9938V4.53358ZM3.50709 6.75446L4.15449 9.03428L1.54391 8.03531L3.50709 6.75446ZM1.05644 8.44386L4.29495 9.6824L4.28856 11.6394L1.05629 10.5626L1.05644 8.44386ZM1.05644 11.1483L4.28662 12.2244L4.28034 14.1319L1.05641 13.0059L1.05644 11.1483ZM1.05644 13.5942L4.27828 14.7195L4.272 16.5861L1.05641 15.3829L1.05644 13.5942Z" fill="#7E858B"/>
</svg>
