<svg width="36" height="20" viewBox="0 0 36 20" fill="none" xmlns="http://www.w3.org/2000/svg">
<path d="M34.9166 15.6935V10.4436C34.9166 9.74016 34.4505 8.69356 33.1666 8.69356C31.8828 8.69356 31.4166 9.74016 31.4208 10.3886C31.4189 10.3951 31.2059 11.0269 29.0833 11.0269C26.87 11.0269 26.7557 9.96804 26.75 9.86024C26.75 9.81544 26.7448 9.77039 26.7349 9.72664C26.5956 9.13394 26.0711 8.13058 24.9914 8.13058C24.3305 8.13058 23.6263 8.51391 22.8383 9.30191C22.6883 9.45191 22.5273 9.62326 22.3536 9.80764C21.2226 11.011 19.6873 12.6358 17.1539 12.7646L22.475 7.96024C22.6471 7.80503 22.7107 7.56311 22.6377 7.34305C22.6057 7.2467 22.3018 6.39932 21.4653 6.20219C21.2776 6.1574 21.0833 6.15609 20.8849 6.1876C20.8661 6.12641 20.8422 6.06573 20.8015 6.01157L17.3617 1.40091C16.5036 0.144909 15.5844 0.0550433 15.0086 0.391776C14.3856 0.755315 14.1732 1.58191 14.4802 2.36704C14.427 2.62719 14.1809 3.3535 13.0429 4.12877C11.6127 5.10297 9.53064 4.09856 9.51091 4.0884C9.34242 4.00507 9.14528 4.00742 8.98018 4.09413C8.81456 4.18111 8.70076 4.34257 8.67393 4.52825L7.56533 12.2756C6.57887 12.454 4.14714 12.9266 3.15548 13.4219C1.44821 14.2753 1.14535 16.2021 1.09401 16.7089C0.753646 17.0016 0.5 17.455 0.5 18.118C0.5 18.7813 1.17033 19.1938 2.25 19.1938H9.09198C9.37011 19.5259 9.79612 19.7738 10.4167 19.7772L32.5833 19.7706C35.4667 19.7706 35.5 18.0982 35.5 18.0272V16.2772C35.5 15.9553 35.2393 15.6938 34.9167 15.6938L34.9166 15.6935ZM24.9906 9.29722C25.368 9.29722 25.556 9.85139 25.5919 9.97089C25.6487 10.4347 26.0641 12.1936 29.0833 12.1936C32.4854 12.1936 32.5833 10.6228 32.5833 10.4506C32.5904 10.181 32.6966 9.86019 33.1667 9.86019C33.6367 9.86019 33.743 10.181 33.75 10.4435V15.6935C33.75 16.757 32.857 16.8555 32.5805 16.8602H10.4165V16.2768C10.4165 13.9844 13.2154 13.944 13.3332 13.9435H16.8332C18.7728 13.9435 20.2532 13.1898 21.3832 12.3183L21.6707 12.6058C21.7845 12.7196 21.9339 12.7768 22.0832 12.7768C22.2324 12.7768 22.3819 12.7196 22.4956 12.606C22.7238 12.3779 22.7238 12.0091 22.4956 11.7813L22.2699 11.556C22.3907 11.4417 22.5056 11.3284 22.6157 11.2177L22.8373 11.4394C22.9511 11.5529 23.1006 11.6102 23.2498 11.6102C23.399 11.6102 23.5485 11.5529 23.6623 11.4394C23.8904 11.2112 23.8904 10.8425 23.6623 10.6146L23.4238 10.3761C23.5037 10.2927 23.5884 10.2011 23.6623 10.1271C24.3839 9.40526 24.8045 9.29719 24.9904 9.29719L24.9906 9.29722ZM21.1948 7.33736C21.2461 7.34908 21.2935 7.37824 21.3349 7.41679L15.3984 12.7769H14.8419L20.1596 7.94225C20.793 7.3071 21.1097 7.31809 21.1948 7.33736ZM3.67748 14.466C4.44755 14.0811 6.53295 13.6499 7.70014 13.4371C7.89103 13.7285 8.21577 13.9439 8.66681 13.9439C8.98946 13.9439 9.25014 13.6743 9.25014 13.3524C9.25014 13.0334 8.99285 12.7673 8.67488 12.7626L9.01368 10.392C9.08633 10.424 9.16498 10.4438 9.25014 10.4438H9.83347C10.1561 10.4438 10.4168 10.1824 10.4168 9.8605C10.4168 9.53863 10.1561 9.27717 9.83347 9.27717H9.25014C9.22149 9.27717 9.19754 9.2894 9.17019 9.29279L9.25587 8.69383H9.83348C10.1561 8.69383 10.4168 8.43237 10.4168 8.1105C10.4168 7.78863 10.1561 7.52717 9.83348 7.52717H9.4228L9.72384 5.42017C10.6613 5.72069 12.3225 6.02928 13.698 5.09231C15.6132 3.78864 15.661 2.42458 15.6598 2.27304C15.6592 2.18502 15.6387 2.09804 15.5996 2.0194C15.4322 1.67929 15.5285 1.43711 15.5949 1.39883C15.659 1.36159 15.9822 1.45143 16.4105 2.07849L19.8394 6.67455C19.679 6.7959 19.5163 6.9347 19.3535 7.09851L13.1001 12.7847C11.6465 12.8613 9.25012 13.654 9.25012 16.2772H2.3588C2.50802 15.7032 2.86088 14.8743 3.67753 14.466L3.67748 14.466ZM2.25015 18.0272C2.05771 18.0272 1.82021 17.9934 1.67854 17.9519C1.73792 17.5493 2.01786 17.4509 2.25015 17.4439H8.66681V18.0272H2.25015ZM32.5828 18.604L10.4201 18.6105C9.94696 18.6082 9.84019 18.2879 9.83342 18.0272H32.5834C33.1365 18.0272 33.75 17.8027 34.3334 17.2741V17.9939C34.3334 18.2051 33.9016 18.604 32.5828 18.604L32.5828 18.604Z" fill="#7E858B"/>
<path d="M25.5833 15.694H31.4167C31.7393 15.694 32 15.4325 32 15.1107C32 14.7888 31.7393 14.5273 31.4167 14.5273H25.5833C25.2607 14.5273 25 14.7888 25 15.1107C25 15.4325 25.2607 15.694 25.5833 15.694Z" fill="#7E858B"/>
<path d="M13.3333 10.444C13.4825 10.444 13.632 10.3867 13.7458 10.2732L17.2458 6.77317C17.4739 6.54504 17.4739 6.1763 17.2458 5.94844C17.0177 5.72031 16.6489 5.72031 16.4211 5.94844L12.9211 9.44843C12.693 9.67656 12.693 10.0453 12.9211 10.2732C13.0346 10.3867 13.1841 10.444 13.3333 10.444Z" fill="#7E858B"/>
</svg>
